PathFileType	4	(X/Y/Z)	Patient5_TMGait_0pt45_1_right_13.trc.trc
DataRate	CameraRate	NumFrames	NumMarkers	Units	OrigDataRate	OrigDataStartFrame	OrigNumFrames
63.348416289593	63.348416289593	4	32	mm	63.348416289593	106	       141
Frame#	Time	R.ASIS			L.ASIS			Chest			R.Shoulder			Neck			L.Shoulder			L.Elbow			L.Wrist			R.Elbow			R.Wrist			L.Thigh.Superior			L.Thigh.Lateral			L.Thigh.Inferior			L.Patella			L.Shank.Superior			L.Shank.Lateral			L.Shank.Inferior			L.Heel			L.Midfoot.Lateral			L.Midfoot.Superior			L.Toe			R.Thigh.Superior			R.Thigh.Lateral			R.Thigh.Inferior			R.Patella			R.Shank.Superior			R.Shank.Lateral			R.Shank.Inferior			R.Heel			R.Midfoot.Lateral			R.Midfoot.Superior			R.Toe			
		X1	Y1	Z1	X2	Y2	Z2	X3	Y3	Z3	X4	Y4	Z4	X5	Y5	Z5	X6	Y6	Z6	X7	Y7	Z7	X8	Y8	Z8	X9	Y9	Z9	X10	Y10	Z10	X11	Y11	Z11	X12	Y12	Z12	X13	Y13	Z13	X14	Y14	Z14	X15	Y15	Z15	X16	Y16	Z16	X17	Y17	Z17	X18	Y18	Z18	X19	Y19	Z19	X20	Y20	Z20	X21	Y21	Z21	X22	Y22	Z22	X23	Y23	Z23	X24	Y24	Z24	X25	Y25	Z25	X26	Y26	Z26	X27	Y27	Z27	X28	Y28	Z28	X29	Y29	Z29	X30	Y30	Z30	X31	Y31	Z31	X32	Y32	Z32	

106	23.037500000000	1034.695187719473	1016.549231216312	544.694690214257	1045.218453472154	961.730970133117	299.856954626431	1122.904407585767	1438.036371775398	439.622756967480	990.628800932747	1509.784824013823	577.031622580538	1015.645695378685	1569.440494501984	394.684570015923	1123.269157006791	1508.829050263532	238.862964576745	1114.025099035966	1189.611724807631	96.124763454525	1238.989303910307	934.793829041641	156.556171064424	866.306323340012	1194.879897607591	696.065416049895	1089.466396203233	1010.868488735254	667.237497599702	1043.046286502512	736.950108746823	307.661727843280	965.127936524955	672.540330423116	264.589763231907	1023.186182175384	610.102582801976	335.405351843901	1009.887852835169	497.484715306641	345.956607164751	955.018705804292	399.750657685621	366.669139819040	890.126909176562	332.336913271428	285.810964702308	912.149565025386	280.007035012809	377.662010906957	762.471767660815	52.292293795000	376.197178350235	854.106581169703	28.207130791716	321.165338445573	948.689985728711	87.935658359472	370.457113119740	1055.713417055955	43.953851116943	380.417881922783	1085.169267204109	813.037442188627	582.918351760146	1025.546852223960	727.067751462252	650.939382962318	1125.001680767140	690.738645659085	591.798783100563	1152.984330127638	597.189570531515	639.848944376690	1118.244113498941	484.957637568327	607.543312944150	1036.311029823553	420.014056224436	682.833757944621	1101.974351114400	345.615107492037	613.734711265589	987.311729514058	122.695240957733	582.601230215386	1056.263171619260	85.018751658432	661.789828631901	1164.240931858370	149.562348057680	660.319193025780	1265.963508360746	103.720738340108	668.513774167214	
107	23.053285714286	1034.613977740531	1015.975964631446	545.739665576048	1043.428856072075	961.736275827847	299.665270870621	1120.125444201563	1438.174953234532	440.055623369030	988.179001226279	1509.345792640089	578.399684573831	1012.094456254086	1569.210931407729	396.009488144356	1119.045545346419	1509.074056518089	239.435554834523	1110.614170526584	1189.477997369997	97.371623677234	1235.895060027788	934.860891027942	158.188956784072	864.269329881090	1194.358774363397	697.577823668205	1088.318270299225	1011.372680039086	669.156868446820	1040.281340313554	736.013351444827	307.430493776760	961.530870292817	672.118052563907	264.884317647908	1019.307655575888	609.271052425310	335.423693680459	1005.096888769272	496.878824620051	345.917210068770	949.714175998793	399.423911123192	366.890188785735	884.243412944626	332.425409146766	286.257457694360	906.174051262268	279.919624535176	377.883571856682	755.405885300836	52.656299429465	376.390140040326	846.957661614197	28.413388667649	321.385453722371	941.568680703128	88.046449722028	370.533521368949	1048.589228660448	43.937976627596	380.389155069223	1089.557810887478	813.771552714767	580.840198262482	1032.228842875236	727.125197368349	650.569048299160	1130.913332646515	692.114343094499	589.520710500651	1160.962197972555	598.778118428724	637.148899086068	1125.694433244742	485.806209916884	605.235953062806	1045.434031790438	420.555282658360	682.017429242599	1109.528335325324	346.427850652942	611.154191659844	993.990080826515	123.647831149467	581.629177124778	1064.767520400434	85.694546386379	659.111005026688	1172.605015863972	150.455704053619	655.464049115832	1274.526263827304	104.728101215138	661.108488358014	
108	23.069071428571	1034.507263937692	1015.169868099087	546.491591129726	1041.713436402189	961.680047979823	299.481102527226	1117.430409342942	1438.316277078189	440.545212144246	985.955187778777	1508.774724811642	579.991881766277	1008.550654777044	1568.938947062419	397.543756081637	1114.635309847726	1509.406496361131	240.071220557593	1106.851182545806	1189.457303402163	98.591147217801	1232.536200341528	935.091149742370	159.792611321723	862.510457796841	1193.726409891010	699.432439049640	1087.145718419363	1011.413319245954	671.251394989072	1037.705517962822	735.216115725053	307.181646899406	958.081177753758	671.738968308012	265.211961135280	1015.669565361536	608.519120543861	335.361463452329	1000.579155824656	496.245459371489	345.820175022491	944.599815050280	399.103689934965	367.096116275112	878.489359017705	332.575173847115	286.700619418868	900.375563656099	279.868758523391	378.111223307426	748.370495172030	53.099443680660	376.619555869631	839.826503594024	28.689259005082	321.608221324663	934.489015137467	88.178681849777	370.603245249974	1041.471637408622	43.921494889630	380.358547046902	1093.515744176773	813.974354484254	579.145333020560	1038.251139350381	726.788165138337	650.110451726259	1136.000262643532	692.815106111307	587.136886275566	1167.851904438388	599.655008819097	634.268882745083	1132.058564848666	486.090669029259	602.808832320987	1053.516984020162	420.583678998199	681.047586161676	1116.072230511221	346.694250354133	608.559458172253	999.798427518577	123.989052254864	580.799253084591	1072.390084260825	85.819092382342	656.542197888213	1180.025808039765	150.821937352083	650.703847544397	1282.133980727325	105.258245673263	653.833723192076	
109	23.084857142857	1034.388132615845	1014.127721924081	546.928854019586	1040.090401198099	961.577963597846	299.346992815633	1114.834790226215	1438.456333215473	441.096797491275	983.987628594543	1508.091097847811	581.794776306135	1005.046820488492	1568.624128851287	399.271713574658	1110.068455138269	1509.799221122822	240.768333866049	1102.719337359755	1189.528580756381	99.771854413666	1228.923860549183	935.469719192698	161.308714911922	861.116936509380	1192.997666559289	701.660540607890	1085.987751961364	1010.961174260815	673.434175356751	1035.345784840415	734.572199290291	306.984148718296	954.807112434350	671.420988735950	265.599286599398	1012.298697696588	607.871821293778	335.268260557243	996.324427779798	495.579552792728	345.698190480396	939.676388391154	398.796171166916	367.295259546220	872.867856314604	332.790621830974	287.143045762257	894.746347615917	279.858033677258	378.348874667318	741.365788561402	53.629261263838	376.885863309967	832.714575814041	29.042732248955	321.828754010249	927.455127790493	88.320150219839	370.670453863951	1034.358896949634	43.904899713521	380.325780003029	1096.982866786802	813.612158572122	577.785017906406	1043.492982712417	725.982614343742	649.548104762834	1140.201589553349	692.780829836891	584.694659645246	1173.548122412638	599.746159406336	631.249281840686	1137.295466536299	485.754211574781	600.279017447399	1060.493108649886	420.003725466276	679.884532781832	1121.627134675779	346.353727116724	605.955689649013	1004.917376746424	123.594867988550	579.997952207287	1079.212998871214	85.343459616577	654.096544193753	1186.569943857619	150.642985753782	646.169068246125	1288.861686295484	105.320704390903	646.990632486106	
